# xmcd CD database file generated by OrangeCD 6.2
#
# Track frame offsets:
#	150
#	25889
#	42704
#	63085
#	83397
#	107061
#	123104
#	137813
#	156762
#	177123
#	193376
#
# Disc length: 2996 seconds
#
# Revision: 0
# Processed by: cddbd v1.5.2PL0 Copyright (c) Steve Scherf et al.
# Submitted via: OrangeCD 6.2
#
DISCID=8d0bb20b
DTITLE=Van Morrison - Keep It Simple
DYEAR=2008
DGENRE=
TTITLE0=How Can A Poor Boy
TTITLE1=School Of Hard Knocks
TTITLE2=That's Entertainment
TTITLE3=Don't Go To Nightclubs Anymore
TTITLE4=Lover Come Back
TTITLE5=Keep It Simple
TTITLE6=End Of The Land
TTITLE7=Song Of Home
TTITLE8=No Thing
TTITLE9=Soul
TTITLE10=Behind The Ritual
EXTD=
EXTT0=
EXTT1=
EXTT2=
EXTT3=
EXTT4=
EXTT5=
EXTT6=
EXTT7=
EXTT8=
EXTT9=
EXTT10=
PLAYORDER=
